<?xml version="1.0" encoding="utf-8"?>
<!-- Generator: Adobe Illustrator 21.0.2, SVG Export Plug-In . SVG Version: 6.00 Build 0)  -->
<svg version="1.1" id="Layer_1" xmlns="http://www.w3.org/2000/svg" xmlns:xlink="http://www.w3.org/1999/xlink" x="0px" y="0px"
	 viewBox="0 0 377.7 91.1" style="enable-background:new 0 0 377.7 91.1;" xml:space="preserve">
<style type="text/css">
	.st0{fill:#FFFFFF;}
	.st1{fill:#CFD8DC;}
	.st2{fill:#8BC34A;}
</style>
<path class="st0" d="M0,0h17.1c2.9,0,5.5,0.2,7.9,0.6c2.4,0.4,4.5,1.2,6.3,2.2c1.8,1.1,3.2,2.5,4.2,4.2c1,1.7,1.6,3.9,1.6,6.6
	c0,1.2-0.2,2.5-0.5,3.7c-0.4,1.2-0.9,2.4-1.7,3.4c-0.8,1.1-1.8,2-2.9,2.9c-1.2,0.8-2.6,1.5-4.2,1.8v0.3c3.9,0.7,6.9,2.1,8.9,4.2
	c2,2.1,3,5,3,8.7c0,2.8-0.5,5.2-1.6,7.2c-1.1,2-2.5,3.7-4.5,5c-1.9,1.3-4.1,2.3-6.7,2.9c-2.5,0.6-5.3,1-8.3,1H0V0z M16.5,22.1
	c3,0,5.2-0.6,6.6-1.8c1.3-1.2,2-2.8,2-4.9c0-2.1-0.7-3.6-2.1-4.5c-1.4-0.9-3.5-1.3-6.4-1.3h-4.3v12.5H16.5z M17.7,45.2
	c6.6,0,9.9-2.5,9.9-7.5c0-2.4-0.8-4.2-2.4-5.2c-1.6-1.1-4.1-1.6-7.5-1.6h-5.4v14.4H17.7z"/>
<path class="st0" d="M47.5,44.4h12.8V10.4H47.5V0h38v10.4H72.7v33.9h12.8v10.4h-38V44.4z"/>
<path class="st0" d="M95.3,0h12.5v22.4h0.3L124.2,0h13.6l-16.4,21.8l18,32.9h-13.7l-11.6-23.1l-6.4,8.4v14.7H95.3V0z"/>
<path class="st0" d="M145.7,0h36.1v10.4h-23.8v11h20.2v10.3h-20.2v12.6h24.6v10.4h-37V0z"/>
<path class="st1" d="M193.8,31.3c1.2-3.8,2.7-6.3,4.5-7.6c1.8-1.3,3.6-2,5.5-2c1.6,0,3,0.4,4.4,1.2c1.3,0.8,2.6,1.7,3.8,2.6
	c1.2,1,2.3,1.8,3.5,2.6c1.1,0.8,2.3,1.2,3.5,1.2c0.7,0,1.4-0.1,2.1-0.3c0.6-0.2,1.3-0.5,1.8-1s1.2-1.2,1.7-2.2c0.6-1,1.1-2.3,1.7-4
	l2.6,1.2c-1.2,3.6-2.7,6.1-4.5,7.5c-1.8,1.3-3.6,2-5.5,2c-1.6,0-3.1-0.4-4.4-1.2c-1.3-0.8-2.6-1.7-3.7-2.6c-1.2-1-2.3-1.8-3.5-2.6
	c-1.1-0.8-2.3-1.2-3.5-1.2c-0.7,0-1.4,0.1-2.1,0.3c-0.6,0.2-1.3,0.5-1.8,1c-0.6,0.5-1.2,1.3-1.7,2.3c-0.6,1-1.1,2.3-1.7,3.9
	L193.8,31.3z"/>
<path class="st0" d="M240.7,0h20c3,0,5.8,0.3,8.4,0.9c2.6,0.6,4.9,1.6,6.8,2.9c1.9,1.4,3.5,3.2,4.6,5.5c1.1,2.3,1.7,5.1,1.7,8.4
	c0,3.2-0.6,6-1.7,8.3c-1.1,2.4-2.7,4.3-4.7,5.8c-2,1.5-4.2,2.6-6.8,3.4c-2.6,0.7-5.3,1.1-8.2,1.1H253v18.6h-12.3V0z M259.9,26.4
	c6.7,0,10-2.9,10-8.7c0-2.9-0.8-4.9-2.5-6c-1.7-1.2-4.2-1.8-7.5-1.8H253v16.5H259.9z"/>
<path class="st0" d="M284,0h13.1l6.6,25.5c0.8,3,1.6,6,2.2,8.8c0.6,2.8,1.4,5.8,2.1,8.8h0.3c0.8-3,1.6-5.9,2.3-8.8
	c0.7-2.8,1.4-5.8,2.2-8.8L319.3,0h12.6l-16.5,54.8h-14.9L284,0z"/>
<path class="st0" d="M336.5,0h14.9c4,0,7.6,0.5,10.8,1.6c3.2,1.1,6,2.7,8.3,4.9c2.3,2.2,4.1,5,5.3,8.4c1.3,3.4,1.9,7.5,1.9,12.2
	c0,4.7-0.6,8.8-1.9,12.3c-1.3,3.5-3,6.3-5.3,8.6s-5,4-8.1,5.1c-3.1,1.1-6.6,1.7-10.4,1.7h-15.5V0z M350.7,44.8
	c2.1,0,4.1-0.3,5.8-0.9c1.8-0.6,3.3-1.6,4.5-3c1.3-1.4,2.2-3.2,2.9-5.4c0.7-2.2,1-5,1-8.3c0-3.2-0.4-6-1-8.2c-0.7-2.2-1.7-4-2.9-5.3
	c-1.3-1.3-2.8-2.3-4.5-2.8c-1.8-0.6-3.7-0.8-5.8-0.8h-1.8v34.8H350.7z"/>
<path class="st2" d="M0.6,71.1h2.5v19.7H0.6V71.1z"/>
<path class="st2" d="M17.1,71.1h2.6l7.1,12.4l2.1,4.1H29c-0.1-2-0.3-4.2-0.3-6.3V71.1h2.4v19.7h-2.6l-7.1-12.4l-2.1-4.1h-0.1
	c0.1,2,0.3,4.1,0.3,6.2v10.3h-2.4V71.1z"/>
<path class="st2" d="M45,71.1h2.6l7.1,12.4l2.1,4.1H57c-0.1-2-0.3-4.2-0.3-6.3V71.1H59v19.7h-2.6l-7.1-12.4l-2.1-4.1h-0.1
	c0.1,2,0.3,4.1,0.3,6.2v10.3H45V71.1z"/>
<path class="st2" d="M73,71.1h11.3v2.1h-8.8v6.2H83v2.1h-7.4v7.1h9.1v2.1H73V71.1z"/>
<path class="st2" d="M108.2,90.8l-4.7-8.3h-3.5v8.3h-2.5V71.1h6.2c4,0,6.9,1.4,6.9,5.5c0,3.1-1.7,4.9-4.4,5.6l5,8.6H108.2z
	 M99.9,80.4h3.3c3.1,0,4.7-1.3,4.7-3.8c0-2.6-1.7-3.5-4.7-3.5h-3.3V80.4z"/>
<path class="st2" d="M145.7,70.7c2.3,0,4.2,1.1,5.4,2.4l-1.4,1.6c-1-1.1-2.3-1.8-3.9-1.8c-3.8,0-6.2,3.1-6.2,8
	c0,4.9,2.4,8.1,6.1,8.1c1.9,0,3.2-0.8,4.5-2.2l1.4,1.5c-1.5,1.8-3.5,2.8-6,2.8c-4.9,0-8.6-3.8-8.6-10.2
	C137,74.6,140.7,70.7,145.7,70.7z"/>
<path class="st2" d="M163.8,71.1h2.5v19.7h-2.5V71.1z"/>
<path class="st2" d="M184.3,73.2h-6v-2.1h14.4v2.1h-6v17.6h-2.5V73.2z"/>
<path class="st2" d="M207.6,83.1l-5.9-12.1h2.7l2.5,5.5c0.6,1.4,1.2,2.8,1.9,4.3h0.1c0.7-1.5,1.4-2.9,2-4.3l2.6-5.5h2.6l-5.9,12.1
	v7.6h-2.5V83.1z"/>
<path class="st2" d="M249.7,70.7c2.3,0,4.2,1.1,5.4,2.4l-1.4,1.6c-1-1.1-2.3-1.8-3.9-1.8c-3.8,0-6.2,3.1-6.2,8
	c0,4.9,2.4,8.1,6.1,8.1c1.9,0,3.2-0.8,4.5-2.2l1.4,1.5c-1.5,1.8-3.5,2.8-6,2.8c-4.9,0-8.6-3.8-8.6-10.2
	C240.9,74.6,244.6,70.7,249.7,70.7z"/>
<path class="st2" d="M270.7,83.1l-5.9-12.1h2.7l2.5,5.5c0.6,1.4,1.2,2.8,1.9,4.3h0.1c0.7-1.5,1.3-2.9,1.9-4.3l2.6-5.5h2.6l-5.9,12.1
	v7.6h-2.5V83.1z"/>
<path class="st2" d="M297.6,70.7c2.3,0,4.2,1.1,5.4,2.4l-1.4,1.6c-1-1.1-2.3-1.8-3.9-1.8c-3.8,0-6.2,3.1-6.2,8
	c0,4.9,2.4,8.1,6.1,8.1c1.9,0,3.2-0.8,4.5-2.2l1.4,1.5c-1.5,1.8-3.5,2.8-6,2.8c-4.9,0-8.6-3.8-8.6-10.2
	C288.8,74.6,292.5,70.7,297.6,70.7z"/>
<path class="st2" d="M315.6,71.1h2.5v17.5h8.6v2.1h-11.1V71.1z"/>
<path class="st2" d="M338.7,71.1h11.3v2.1h-8.8v6.2h7.4v2.1h-7.4v7.1h9.1v2.1h-11.6V71.1z"/>
<path class="st2" d="M363.2,86.5c1.4,1.5,3.4,2.5,5.4,2.5c2.6,0,4.1-1.3,4.1-3.2c0-2-1.4-2.6-3.3-3.5l-2.8-1.2c-1.8-0.8-4-2.2-4-5.1
	c0-3,2.6-5.2,6.2-5.2c2.3,0,4.4,1,5.8,2.4l-1.3,1.6c-1.2-1.1-2.7-1.9-4.5-1.9c-2.2,0-3.7,1.1-3.7,2.9c0,1.9,1.7,2.6,3.3,3.3l2.8,1.2
	c2.3,1,4,2.3,4,5.2c0,3.1-2.6,5.6-6.7,5.6c-2.8,0-5.2-1.1-6.9-2.9L363.2,86.5z"/>
</svg>
